REM DIRINDEX 1\2\6,1\2\7,1\2\8,1\2\9,1\3\10,1\3\11,1\4\12,1\4\13,1\4\14,1\5\15,1\5\16,1\5\17
REM DIRNAME folder01,folder02,folder03,folder04,folder05,folder06,folder07,folder08,folder09,folder10,folder11,folder12,folder13,folder14,folder15,folder16,folder17
TITLE ""
FILE "1400_3_sec02_0166_0183.mp3" MP3
  TRACK 01 AUDIO
    TITLE "0:"
    INDEX 01 00:00:00
  TRACK 02 AUDIO
    TITLE "17:cjc029_4759"
    INDEX 01 00:00:15
  TRACK 03 AUDIO
    TITLE "0:"
    INDEX 01 00:01:19
  TRACK 04 AUDIO
    TITLE "16:cjc029_4760"
    INDEX 01 00:01:26
  TRACK 05 AUDIO
    TITLE "0:"
    INDEX 01 00:02:28
  TRACK 06 AUDIO
    TITLE "17:cjc029_4761"
    INDEX 01 00:03:12
  TRACK 07 AUDIO
    TITLE "0:"
    INDEX 01 00:04:17
  TRACK 08 AUDIO
    TITLE "16:cjc029_4762"
    INDEX 01 00:04:23
  TRACK 09 AUDIO
    TITLE "0:"
    INDEX 01 00:05:42
  TRACK 10 AUDIO
    TITLE "17:cjc029_4763"
    INDEX 01 00:06:26
  TRACK 11 AUDIO
    TITLE "0:"
    INDEX 01 00:09:71
  TRACK 12 AUDIO
    TITLE "16:cjc029_4764"
    INDEX 01 00:10:00
  TRACK 13 AUDIO
    TITLE "0:"
    INDEX 01 00:11:09
  TRACK 14 AUDIO
    TITLE "17:cjc029_4765"
    INDEX 01 00:11:68
  TRACK 15 AUDIO
    TITLE "0:"
    INDEX 01 00:13:04
  TRACK 16 AUDIO
    TITLE "16:cjc029_4766"
    INDEX 01 00:13:08
  TRACK 17 AUDIO
    TITLE "0:"
    INDEX 01 00:14:11
  TRACK 18 AUDIO
    TITLE "17:cjc029_4767"
    INDEX 01 00:14:70
  TRACK 19 AUDIO
    TITLE "0:"
    INDEX 01 00:17:02
  TRACK 20 AUDIO
    TITLE "16:cjc029_4768"
    INDEX 01 00:17:06
  TRACK 21 AUDIO
    TITLE "0:"
    INDEX 01 00:18:27
  TRACK 22 AUDIO
    TITLE "17:cjc029_4769"
    INDEX 01 00:19:18
  TRACK 23 AUDIO
    TITLE "0:"
    INDEX 01 00:20:20
  TRACK 24 AUDIO
    TITLE "16:cjc029_4770"
    INDEX 01 00:20:22
  TRACK 25 AUDIO
    TITLE "0:"
    INDEX 01 00:21:57
  TRACK 26 AUDIO
    TITLE "17:cjc029_4771"
    INDEX 01 00:22:38
  TRACK 27 AUDIO
    TITLE "0:"
    INDEX 01 00:23:42
  TRACK 28 AUDIO
    TITLE "16:cjc029_4772"
    INDEX 01 00:23:50
  TRACK 29 AUDIO
    TITLE "0:"
    INDEX 01 00:24:59
  TRACK 30 AUDIO
    TITLE "17:cjc029_4773"
    INDEX 01 00:25:46
  TRACK 31 AUDIO
    TITLE "0:"
    INDEX 01 00:26:44
  TRACK 32 AUDIO
    TITLE "16:cjc029_4774"
    INDEX 01 00:26:52
  TRACK 33 AUDIO
    TITLE "0:"
    INDEX 01 00:27:73
  TRACK 34 AUDIO
    TITLE "17:cjc029_4775"
    INDEX 01 00:28:57
  TRACK 35 AUDIO
    TITLE "0:"
    INDEX 01 00:30:30
  TRACK 36 AUDIO
    TITLE "16:cjc029_4776"
    INDEX 01 00:30:36
  TRACK 37 AUDIO
    TITLE "0:"
    INDEX 01 00:31:61
  TRACK 38 AUDIO
    TITLE "17:cjc029_4777"
    INDEX 01 00:32:47
  TRACK 39 AUDIO
    TITLE "0:"
    INDEX 01 00:33:36
  TRACK 40 AUDIO
    TITLE "16:cjc029_4778"
    INDEX 01 00:33:40
  TRACK 41 AUDIO
    TITLE "0:"
    INDEX 01 00:34:24
  TRACK 42 AUDIO
    TITLE "17:cjc029_4779"
    INDEX 01 00:35:25
  TRACK 43 AUDIO
    TITLE "0:"
    INDEX 01 00:36:46
  TRACK 44 AUDIO
    TITLE "16:cjc029_4780"
    INDEX 01 00:36:48
  TRACK 45 AUDIO
    TITLE "0:"
    INDEX 01 00:38:00
  TRACK 46 AUDIO
    TITLE "17:cjc029_4781"
    INDEX 01 00:38:57
  TRACK 47 AUDIO
    TITLE "0:"
    INDEX 01 00:39:66
  TRACK 48 AUDIO
    TITLE "16:cjc029_4782"
    INDEX 01 00:39:72
  TRACK 49 AUDIO
    TITLE "0:"
    INDEX 01 00:41:16
  TRACK 50 AUDIO
    TITLE "17:cjc029_4783"
    INDEX 01 00:42:00
  TRACK 51 AUDIO
    TITLE "0:"
    INDEX 01 00:43:19
  TRACK 52 AUDIO
    TITLE "16:cjc029_4784"
    INDEX 01 00:43:23
  TRACK 53 AUDIO
    TITLE "0:"
    INDEX 01 00:44:38
  TRACK 54 AUDIO
    TITLE "17:cjc029_4785"
    INDEX 01 00:45:22
  TRACK 55 AUDIO
    TITLE "0:"
    INDEX 01 00:46:45
  TRACK 56 AUDIO
    TITLE "16:cjc029_4786"
    INDEX 01 00:46:58
  TRACK 57 AUDIO
    TITLE "0:"
    INDEX 01 00:47:54
  TRACK 58 AUDIO
    TITLE "17:cjc029_4787"
    INDEX 01 00:48:36
  TRACK 59 AUDIO
    TITLE "0:"
    INDEX 01 00:50:01
  TRACK 60 AUDIO
    TITLE "16:cjc029_4788"
    INDEX 01 00:50:07
  TRACK 61 AUDIO
    TITLE "0:"
    INDEX 01 00:51:18
  TRACK 62 AUDIO
    TITLE "17:cjc029_4789"
    INDEX 01 00:52:04
  TRACK 63 AUDIO
    TITLE "0:"
    INDEX 01 00:53:27
  TRACK 64 AUDIO
    TITLE "16:cjc029_4790"
    INDEX 01 00:53:33
  TRACK 65 AUDIO
    TITLE "0:"
    INDEX 01 00:54:64
  TRACK 66 AUDIO
    TITLE "17:cjc029_4791"
    INDEX 01 00:55:48
  TRACK 67 AUDIO
    TITLE "0:"
    INDEX 01 00:57:15
  TRACK 68 AUDIO
    TITLE "16:cjc029_4792"
    INDEX 01 00:57:17
  TRACK 69 AUDIO
    TITLE "0:"
    INDEX 01 00:58:22
  TRACK 70 AUDIO
    TITLE "17:cjc029_4793"
    INDEX 01 00:59:10
  TRACK 71 AUDIO
    TITLE "0:"
    INDEX 01 01:00:43
  TRACK 72 AUDIO
    TITLE "16:cjc029_4794"
    INDEX 01 01:00:55
  TRACK 73 AUDIO
    TITLE "0:"
    INDEX 01 01:01:64
